<?xml version="1.0" standalone="no"?>
<!DOCTYPE svg PUBLIC "-//W3C//DTD SVG 20010904//EN"
 "http://www.w3.org/TR/2001/REC-SVG-20010904/DTD/svg10.dtd">
<svg version="1.0" xmlns="http://www.w3.org/2000/svg"
 width="1080.000000pt" height="1080.000000pt" viewBox="0 0 1080.000000 1080.000000"
 preserveAspectRatio="xMidYMid meet">
<metadata>
Created by potrace 1.14, written by Peter Selinger 2001-2017
</metadata>
<g transform="translate(0.000000,1080.000000) scale(0.100000,-0.100000)"
fill="#000000" stroke="none">
<path d="M3577 8228 c-253 -22 -541 -191 -759 -444 -40 -47 -75 -90 -77 -95
-2 -6 33 16 76 48 82 61 210 129 298 158 160 53 360 61 521 20 483 -123 908
-632 1159 -1390 23 -71 49 -154 56 -183 11 -44 17 -53 38 -57 95 -18 166 -41
235 -75 43 -22 80 -40 81 -40 4 0 -43 260 -61 334 -139 585 -387 1072 -701
1377 -274 267 -544 375 -866 347z"/>
<path d="M7370 8233 c-278 -28 -571 -164 -774 -361 -70 -69 -178 -193 -172
-199 1 -2 40 22 86 53 105 70 171 103 285 144 285 101 501 93 750 -29 227
-111 442 -318 633 -608 138 -212 294 -568 368 -843 24 -91 29 -101 53 -105 95
-18 166 -41 235 -75 43 -22 79 -40 81 -40 3 0 -2 28 -41 229 -52 266 -123 492
-231 741 -278 639 -723 1054 -1168 1089 -44 3 -91 5 -105 4z"/>
<path d="M5917 7949 c-53 -55 -107 -118 -122 -139 l-27 -39 94 -188 c52 -103
112 -232 133 -285 21 -54 41 -98 45 -98 3 0 14 17 24 37 29 60 100 165 159
235 l55 65 -54 128 c-68 161 -185 385 -200 385 -7 0 -55 -45 -107 -101z"/>
<path d="M2129 7853 c-282 -328 -460 -654 -619 -1133 -102 -305 -162 -590
-202 -960 -27 -256 -30 -733 -5 -975 66 -629 216 -1152 458 -1600 348 -644
838 -1048 1394 -1151 131 -25 382 -25 510 -2 144 27 261 65 390 127 262 125
465 284 671 525 l59 70 -103 -82 c-178 -141 -384 -251 -577 -307 -158 -45
-257 -59 -430 -59 -247 0 -424 41 -653 150 -601 285 -1072 940 -1316 1830 -73
265 -114 504 -146 853 -51 550 3 1153 154 1701 98 359 272 752 448 1015 95
142 90 142 -33 -2z"/>
<path d="M4052 5818 c-117 -98 -216 -262 -247 -407 -18 -88 -19 -235 -1 -316
47 -214 194 -402 391 -500 108 -54 200 -75 332 -76 125 -1 221 22 332 78 46
24 85 43 87 43 4 0 1 -18 -43 -240 -82 -420 -237 -823 -429 -1118 -30 -45 -54
-86 -54 -90 0 -14 125 129 211 243 253 334 431 757 534 1265 19 96 35 187 35
203 l0 27 -37 -23 c-105 -65 -227 -97 -368 -97 -138 0 -221 20 -342 81 -206
103 -353 299 -393 526 -19 104 -9 259 23 358 15 43 25 81 23 82 -2 2 -26 -16
-54 -39z"/>
<path d="M7762 5818 c-71 -60 -149 -160 -188 -243 -175 -369 -29 -802 331
-980 108 -54 200 -75 332 -76 125 -1 221 22 332 78 46 24 85 43 87 43 4 0 1
-18 -43 -240 -82 -420 -237 -823 -430 -1118 -29 -46 -50 -82 -45 -80 19 7 156
165 227 262 185 255 342 591 444 952 34 120 101 443 101 487 l0 27 -37 -23
c-105 -65 -227 -97 -368 -97 -133 0 -221 20 -331 75 -344 169 -499 558 -369
925 8 24 14 45 11 47 -2 2 -26 -16 -54 -39z"/>
<path d="M6000 3218 c-18 -46 -77 -174 -132 -285 l-100 -201 32 -44 c55 -77
231 -248 338 -328 245 -184 519 -295 832 -336 266 -35 537 11 795 135 264 126
464 283 671 525 l59 70 -103 -82 c-303 -241 -639 -366 -982 -366 -453 0 -905
199 -1233 544 -47 50 -101 111 -118 137 l-32 46 41 76 40 76 -31 57 c-18 32
-35 58 -38 58 -4 0 -21 -37 -39 -82z"/>
</g>
</svg>
