<?xml version="1.0" standalone="no"?>
<!DOCTYPE svg PUBLIC "-//W3C//DTD SVG 20010904//EN"
 "http://www.w3.org/TR/2001/REC-SVG-20010904/DTD/svg10.dtd">
<svg version="1.0" xmlns="http://www.w3.org/2000/svg"
 width="1080.000000pt" height="1080.000000pt" viewBox="0 0 1080.000000 1080.000000"
 preserveAspectRatio="xMidYMid meet">
<metadata>
Created by potrace 1.14, written by Peter Selinger 2001-2017
</metadata>
<g transform="translate(0.000000,1080.000000) scale(0.100000,-0.100000)"
fill="#000000" stroke="none">
<path d="M3115 9114 c-145 -20 -192 -28 -270 -49 -363 -97 -689 -306 -983
-629 -481 -529 -821 -1359 -921 -2252 -87 -768 -27 -1510 175 -2189 116 -389
248 -672 511 -1102 165 -269 301 -449 465 -615 362 -367 776 -571 1208 -596
458 -27 853 104 1248 416 95 75 294 277 385 392 419 525 706 1263 806 2070 33
265 43 437 43 730 -1 672 -105 1270 -319 1830 -74 194 -223 496 -320 650 -140
221 -290 443 -360 530 -88 111 -288 316 -383 393 -260 210 -550 347 -855 404
-77 14 -368 26 -430 17z m476 -869 c234 -41 451 -162 671 -373 239 -231 350
-416 504 -842 43 -116 104 -330 134 -465 30 -133 68 -353 63 -359 -3 -2 -26 8
-51 23 -64 37 -134 66 -212 87 -91 25 -309 25 -400 0 -251 -69 -433 -220 -539
-447 -59 -125 -75 -201 -75 -349 1 -185 44 -325 146 -471 23 -34 58 -90 77
-123 65 -118 115 -188 175 -243 118 -108 247 -176 400 -211 93 -21 260 -20
345 2 35 9 66 14 69 12 7 -8 -58 -254 -105 -396 -225 -670 -568 -1157 -991
-1405 -90 -53 -203 -98 -316 -127 -124 -32 -328 -29 -459 5 -194 51 -349 134
-519 277 -107 90 -243 236 -308 330 -84 124 -197 365 -285 608 -106 293 -178
630 -227 1057 -20 171 -16 753 6 940 120 1027 493 1825 1051 2247 142 107 363
205 512 227 94 14 244 12 334 -4z"/>
<path d="M7230 9110 c-341 -42 -673 -175 -944 -378 -114 -86 -289 -256 -361
-351 l-48 -64 70 -136 c69 -131 186 -386 214 -463 14 -42 23 -47 34 -20 6 15
8 14 20 -8 8 -14 38 -80 66 -148 l52 -123 39 72 c198 365 541 628 957 734 294
76 569 15 863 -191 105 -73 304 -271 392 -389 190 -256 386 -784 471 -1269 14
-77 25 -148 25 -157 0 -14 -17 -9 -92 29 -135 69 -215 87 -373 87 -92 -1 -150
-6 -199 -19 -382 -101 -633 -442 -613 -833 3 -60 12 -135 21 -168 21 -79 94
-228 139 -287 20 -26 51 -76 68 -110 114 -225 301 -377 540 -437 119 -30 201
-35 309 -17 52 9 105 19 118 22 27 8 29 19 -30 -199 -117 -435 -311 -844 -546
-1151 -116 -152 -318 -337 -473 -434 -192 -121 -445 -186 -621 -162 -355 50
-697 233 -914 490 -35 41 -77 90 -93 109 -16 19 -53 77 -83 128 -29 51 -56 93
-59 93 -3 0 -18 -33 -33 -73 -16 -39 -82 -183 -148 -319 l-121 -246 34 -44
c18 -24 55 -68 82 -98 37 -43 47 -60 42 -79 -8 -32 73 -137 212 -272 167 -162
307 -262 498 -354 304 -147 603 -211 906 -193 272 16 525 98 775 248 671 406
1183 1260 1378 2300 72 385 96 647 96 1051 0 397 -30 721 -101 1072 -93 466
-255 923 -446 1262 -68 119 -311 496 -390 604 -125 169 -315 371 -453 481 -94
74 -291 199 -387 246 -116 56 -306 120 -431 145 -114 22 -353 32 -462 19z"/>
</g>
</svg>
